/* XPM */
static char *_c056cb7a1124a18c9cb51c0f0ed7696[] = {
/* columns rows colors chars-per-pixel */
"32 32 88 1 ",
"  c #BF0000",
". c #C40017",
"X c #C5001C",
"o c #CB001B",
"O c #C70522",
"+ c #CA0522",
"@ c #C70824",
"# c #CB0925",
"$ c #CB0E29",
"% c #C91025",
"& c #CB122D",
"* c #C71630",
"= c #CC1631",
"- c #CC1B34",
"; c #CD1F39",
": c #CE233C",
"> c #CE2740",
", c #CF2B43",
"< c #D02E46",
"1 c #D03047",
"2 c #D1334B",
"3 c #D33D53",
"4 c #D14458",
"5 c #D64D61",
"6 c #D45265",
"7 c #D85165",
"8 c #D75568",
"9 c #D75A6C",
"0 c #DA5A6C",
"q c #D96374",
"w c #D66E7D",
"e c #DA6B7B",
"r c #D37180",
"t c #DC7382",
"y c #DC7B8A",
"u c #D58692",
"i c #DE8694",
"p c #DF8A97",
"a c #E3818F",
"s c #E58996",
"d c #E6909D",
"f c #D69BA4",
"g c #E797A3",
"h c #E19BA5",
"j c #E899A5",
"k c #E99EA9",
"l c #D0A9AC",
"z c #D7AAB1",
"x c #D6B2B7",
"c c #D9B8BD",
"v c #E2A1AB",
"b c #EAA3AE",
"n c #EBA6B1",
"m c #E2ADB5",
"M c #ECACB5",
"N c #E7B6BD",
"B c #EEB4BC",
"V c #E5B8BF",
"C c #E6B9C0",
"Z c #F0BDC5",
"A c #D7CBCE",
"S c #D5D9D9",
"D c #DBDCDC",
"F c #E8C1C7",
"G c #E9C5CB",
"H c #F1C4CA",
"J c #F4CCD2",
"K c #F8CDD3",
"L c #EBD6D9",
"P c #ECDCDE",
"I c #F5D2D7",
"U c #DAE5E3",
"Y c #DBECEA",
"T c #DCF5F1",
"R c #DCFEFA",
"E c #E6E7E7",
"W c #EAE2E3",
"Q c #ECEBEB",
"! c #F2E3E5",
"~ c #F9E5E8",
"^ c #F0EDED",
"/ c #FBECEE",
"( c #EFF1F0",
") c #E5FFFE",
"_ c #F1F3F3",
"` c #FDF4F5",
"' c #F4FEFE",
"] c #FFFFFF",
/* pixels */
",,,,,,,,,,,,,,,,,,,,,,,,,,,,,,,,",
",,,,,,,,,,,,,,,,,,,,,,,,,,,,,,,,",
",,,,,,,,,,,,,,,,,,,,,,,,,,,,,,,,",
",,,,,,,,,,,,,,,,,,,,,,,,,,,,,,,,",
",,,,,,,,,,,,,,1-@O@@-1,,,,,,,,,,",
",,,,,,,,,,,,,,$7nbbn8&,,,,,,,,,,",
",,,,,,,,,,,,,:$~]]]]V+,,,,,,,,,,",
",,,,,,,,,,,,,Xa]]]]'Q2-,,,,,,,,,",
",,,,,,,,,,,,-:`]]]'Q'e+,,,,,,,,,",
",,,,,,,,,,,<Xs]]]]_Q'v#,,,,,,,,,",
",,,,,,,,,,,&,`]]]nm''P::,,,,,,,,",
",,,,,,,,,,,XM]]]]&t'('5&,,,,,,,,",
",,,,,,,,,1#3]]]]d 9'('p+,,,,,,,,",
",,,,,,,,,,XB]]]`-&:P''F&,,,,,,,,",
",,,,,,,,<O5]]]]sX<@h''(3&<,,,,,,",
",,,,,,,,,OJ]]]K+;,#q'_'y+<,,,,,,",
",,,,,,,1O0]]]]f*$$=3(''N$,<:<,,,",
",,,,,,,:OI]]]`UDf6#oF''P::<:,,,,",
",,,,,,1Xt]]]])SURTz%0'_'9#<<,,,,",
",,,,,,--/]]]!lYRUDRAw~_'f+<<,,,,",
",,,,,1.a]]]]4o5fYRDYUW_'L::,,,,,",
",,,,,-:/]]]ZX:$#4xRUSE__'8$,,,,,",
",,,,,Xj]]]]3&,,,$#yRUD(^'po,,,,,",
",,,,-2]]]]bX,,,,<:orRUQ^'G-:,,,,",
",,,,Ok]]]],*,,,,,,:ouRE`'(3*<<<,",
",,,,XH]]]gX,,,,,,<<:#x)'''i+<:,,",
",,,,&aHHB,-,,,,,,,,,&3cCNGs*:,,,",
",,,,<;*&$:1,,,,,,,,,,;&*&&:,<,,,",
",,,,,,>>,,,,,,,,,,,,,,::,>:,,,,,",
",,,,,,,,,,,,,,,,,,,,,,<,,,<,,,,,",
",,,,,,,,,,,,,,,,,,,,,,,,,,,,,,,,",
",,,,,,,,,,,,,,,,,,,,,,,,,,,,,,,,"
};
