/* XPM */
static char *_2cae47d3d644e68c873e921a5beeca4[] = {
/* columns rows colors chars-per-pixel */
"32 32 2 1 ",
"  c None",
". c white",
/* pixels */
"             .....              ",
"             ......             ",
"             .....              ",
"             ......      .      ",
"     ..     ........    ...     ",
"    ........................    ",
"   .........................    ",
"    ........................    ",
"     ......................     ",
"     .....................      ",
"     ..........  .........      ",
"     ........      ........     ",
"    ........        ........    ",
"...........          ...........",
"...........           ..........",
"..........            ..........",
"..........            ..........",
"...........           ..........",
"...........          ...........",
"    .......          .......    ",
"     .......        .......     ",
"     .........    ........      ",
"     .....................      ",
"     ......................     ",
"    ........................    ",
"   .........................    ",
"    ........................    ",
"     ...    ........    ...     ",
"             ......      .      ",
"             .....              ",
"             ......             ",
"             .....              "
};
